<svg width="32" height="49" viewBox="0 0 32 49" fill="none" xmlns="http://www.w3.org/2000/svg">
<path d="M16 0C24.8366 0 32 7.16344 32 16C32 19.7841 31 21.5 28.4893 26L16 49L3.5 26C0.989258 21.5 0 19.7841 0 16C0 7.16344 7.16344 0 16 0Z" fill="#01629D"/>
<path d="M11.1598 9.29135C11.3362 9.27387 11.8052 9.28523 11.9979 9.28523L13.7108 9.2866C14.0228 9.28785 14.4452 9.30271 14.7488 9.27885C14.6686 9.67168 14.4284 10.1548 14.2898 10.5318C13.5957 12.4195 12.8455 14.2852 12.156 16.1747L16.2488 16.1782C16.1401 16.6208 15.9136 17.0734 15.7537 17.5069C15.1203 19.2231 14.4469 20.927 13.8014 22.6372C13.7922 22.6616 13.7235 22.6638 13.7002 22.6666C12.1632 22.6907 10.5959 22.6709 9.05635 22.675C8.1052 22.6775 6.97208 22.7147 6.0359 22.6623C6.03986 22.6306 6.04571 22.5993 6.05339 22.5684C6.08367 22.4511 6.18442 22.238 6.22576 22.1119C6.33892 21.7669 6.47309 21.4345 6.60272 21.0968L7.68701 18.2829C8.60518 15.9361 9.45592 13.552 10.3878 11.2089C10.4886 10.9554 11.0279 9.37027 11.1598 9.29135ZM12.7396 21.4717C12.8603 21.2552 12.8677 20.9374 13.1436 20.9438C13.4914 20.9249 13.9044 20.909 14.1539 20.6312C14.3484 20.4148 14.3583 20.0648 14.1821 19.8358C13.8621 19.753 13.6693 19.7414 13.3362 19.7486C13.2005 19.7515 12.9369 19.7578 12.8117 19.7284C12.6942 20.0853 12.5711 20.3915 12.4288 20.7378C12.339 20.9561 12.2738 21.2339 12.1871 21.4534C12.3752 21.4491 12.5528 21.4434 12.7396 21.4717Z" fill="white"/>
<path d="M13.3947 20.2247C13.5081 20.2119 13.619 20.2359 13.6895 20.3291C13.7015 20.3931 13.7047 20.3669 13.6749 20.4277C13.6172 20.4774 13.5942 20.4776 13.5199 20.4921C13.3834 20.5102 13.2229 20.5589 13.1513 20.4112C13.1629 20.2793 13.2818 20.2356 13.3947 20.2247Z" fill="white"/>
<path d="M15.0416 9.59993L17.4556 9.59833C17.7758 9.5988 18.1125 9.61331 18.4284 9.60509C18.2917 10.1006 18.0541 10.6821 17.8705 11.1644L16.751 14.0477C16.5291 14.6242 16.3273 15.2165 16.1196 15.7984C16.1049 15.8396 16.043 15.8461 16.005 15.8567C15.7809 15.866 15.2289 15.8698 15.0281 15.8601C14.756 15.8469 12.7345 15.9033 12.6637 15.8165C12.6435 15.6947 13.0096 14.8008 13.0743 14.6299L13.7733 12.7959L14.4972 10.9051C14.5753 10.6961 14.9064 9.67391 15.0416 9.59993Z" fill="white"/>
<path d="M18.9416 12.0831C19.0528 12.0771 19.1832 12.0767 19.2944 12.0793C20.0587 12.0969 20.8611 12.037 21.6213 12.0989C21.5678 12.302 21.4402 12.6101 21.3626 12.8161L20.7695 14.3431L19.2452 18.3297C19.0281 18.3447 18.7646 18.3379 18.5439 18.3377L16.9067 18.3388C16.6957 18.3389 15.9856 18.3537 15.8267 18.3055C15.82 18.291 15.8148 18.2799 15.8145 18.2637C15.8137 18.2156 18.1009 12.2167 18.1755 12.129C18.321 12.0633 18.747 12.0911 18.9416 12.0831Z" fill="white"/>
<path d="M15.7327 19.7386C16.101 19.7111 16.2798 19.7627 16.5713 19.9695C16.7009 20.3301 16.6447 20.6822 16.4228 20.9933C16.1995 21.3064 15.9412 21.3891 15.5831 21.4455C14.9373 21.4891 14.3933 21.2959 14.6794 20.499C14.8383 20.0564 15.2653 19.7766 15.7327 19.7386ZM15.5839 21.0787C15.8207 20.9436 15.9619 20.7731 16.0541 20.5131C16.1393 20.2725 15.9554 20.1167 15.7215 20.1379C15.4934 20.2393 15.3692 20.3054 15.2719 20.5577C15.163 20.8399 15.2182 21.1386 15.5839 21.0787Z" fill="white"/>
<path d="M23.487 19.7624L23.5039 19.7595L23.5273 19.7806C23.5216 19.8762 23.4192 20.1034 23.3787 20.2018C23.1879 20.2047 22.3039 20.1238 22.3014 20.3472C22.4123 20.4553 23.0184 20.4138 23.2003 20.4107C23.1708 20.5506 23.1351 20.6565 23.0905 20.7924C22.7685 20.7871 22.4305 20.7975 22.1076 20.8063L22.0476 21.0171C22.1985 21.017 22.9564 21.0042 23.0732 21.0281C23.0854 21.0856 23.0717 21.0891 23.0467 21.1521L22.9677 21.4087C22.4571 21.4514 21.8502 21.4179 21.327 21.4292C21.4187 21.0579 21.5394 20.8031 21.6725 20.4482C21.7553 20.2274 21.8299 19.9958 21.9136 19.7707C22.3657 19.7331 23.0045 19.7839 23.487 19.7624Z" fill="white"/>
<path d="M20.5652 19.737C20.9088 19.7401 21.0467 19.751 21.3129 19.9727C21.486 20.483 21.2404 20.391 20.8478 20.369L20.6645 20.1138C20.4521 20.1624 20.3455 20.1826 20.173 20.3607C19.9626 20.5778 19.9144 21.09 20.3312 21.0773C20.4899 21.0725 20.6112 20.9307 20.7095 20.8094L21.0211 20.7976C21.117 20.8019 21.1314 20.7888 21.1907 20.8419C21.3102 21.2164 20.4481 21.509 20.1417 21.4607C19.89 21.4209 19.826 21.4213 19.5855 21.3101C19.3234 20.8356 19.4574 20.2765 19.8912 19.9481C20.098 19.7916 20.3126 19.7585 20.5652 19.737Z" fill="white"/>
<path d="M17.3091 19.7558C17.4855 19.7628 17.6327 19.7674 17.81 19.7608C17.6796 20.2463 17.515 20.5534 17.3445 21.017C17.5639 21.0161 17.9867 21.025 18.1871 20.9948C18.1689 21.0971 18.1503 21.2954 18.0974 21.3738C18.0652 21.4216 18.0148 21.4122 17.958 21.4153C17.5111 21.4279 17.064 21.4279 16.6172 21.4153C16.7029 21.2704 16.7196 21.095 16.7832 20.9403C16.9347 20.5719 17.07 20.2016 17.2002 19.8254C17.2183 19.7731 17.2624 19.7697 17.3091 19.7558Z" fill="white"/>
<path d="M18.915 19.7632C19.1283 19.7607 19.3128 19.768 19.525 19.7784C19.2593 20.2672 19.1081 20.889 18.8699 21.4151C18.6986 21.4331 18.4614 21.4154 18.2842 21.4068C18.3682 21.2566 18.498 20.8365 18.5699 20.6561C18.686 20.3646 18.8105 20.0581 18.915 19.7632Z" fill="white"/>
<path d="M19.2654 21.7758C19.283 21.7798 19.3431 21.7943 19.3532 21.8042C19.4607 21.9097 19.5234 22.2295 19.5524 22.3578C19.6399 22.192 19.7142 22.0231 19.7717 21.8456C19.7835 21.8091 19.8264 21.8036 19.8591 21.7945C19.9224 21.8111 19.9019 21.7957 19.9357 21.8519C19.9601 22.0558 19.7663 22.4856 19.6591 22.6672C19.6591 22.6672 19.5805 22.7031 19.5708 22.7075C19.4436 22.663 19.2988 22.2271 19.2425 22.0852C19.2278 22.2211 19.1084 22.7645 18.9033 22.6764C18.8536 22.5117 19.0272 22.1583 19.082 21.9951C19.1146 21.8982 19.1854 21.8349 19.2654 21.7758Z" fill="white"/>
<path d="M17.5542 21.7857C17.7332 21.7754 17.9 21.8099 17.9854 22.0055C18.0014 22.0421 17.9939 22.0514 17.9767 22.0837C17.8167 22.127 17.7545 21.9702 17.5193 21.9614L17.5094 21.9611C17.4302 21.9962 17.3429 22.0303 17.2813 22.091L17.2727 22.0995C17.1937 22.1768 17.1409 22.2926 17.0888 22.3917C17.1503 22.4358 17.273 22.5018 17.3424 22.5419C17.4398 22.5106 17.5499 22.4779 17.6312 22.4171C17.6613 22.3612 17.6603 22.3831 17.6462 22.332C17.5927 22.3598 17.5229 22.4075 17.4714 22.366C17.4784 22.3064 17.4917 22.2477 17.5038 22.1888C17.6015 22.1961 17.8539 22.1784 17.9229 22.2174L17.9219 22.2562C17.7268 22.4868 17.8481 22.5728 17.7068 22.6807C17.55 22.6823 17.6001 22.5346 17.3194 22.701C17.1342 22.8108 17.0057 22.5917 16.9401 22.4285C16.9979 22.0571 17.1851 21.8751 17.5542 21.7857Z" fill="white"/>
<path d="M21.7393 22.7055C21.7886 22.3447 21.8992 22.1455 22.0561 21.8216C22.1025 21.79 22.0821 21.794 22.1317 21.8008L22.2349 21.8208C22.3137 21.8174 22.3228 21.8035 22.3776 21.8382C22.3921 21.9205 22.3784 21.9285 22.3822 21.998C22.3068 22.0077 22.2406 22.0143 22.1673 22.0345C22.1448 22.0532 22.1342 22.0739 22.1185 22.0985C22.1651 22.2057 22.4794 22.1092 22.575 22.1753L22.56 22.212C22.419 22.3314 22.2764 22.2933 22.0765 22.2894C22.0581 22.3601 22.022 22.4271 21.9897 22.4929C22.1317 22.4986 22.3436 22.4672 22.4717 22.52C22.4907 22.5676 22.4872 22.548 22.4737 22.6038C22.3528 22.7502 21.9785 22.6523 21.7482 22.7035L21.7393 22.7055Z" fill="white"/>
<path d="M22.2349 21.8208C22.3137 21.8174 22.3228 21.8035 22.3776 21.8382C22.3921 21.9205 22.3784 21.9285 22.3822 21.998C22.3068 22.0077 22.2406 22.0143 22.1673 22.0345C22.2024 21.9642 22.1687 21.9415 22.2349 21.8208Z" fill="white"/>
<path d="M21.0948 21.7817C21.1672 21.7823 21.1706 21.7715 21.2263 21.8024C21.2989 21.9372 21.2378 22.2902 21.2196 22.4597C21.3401 22.2878 21.6531 21.748 21.8689 21.8095L21.8692 21.8464C21.8099 21.9094 21.7963 21.9321 21.752 22.0073C21.6454 22.1426 21.2685 22.6652 21.1401 22.6983L21.1114 22.6804C21.019 22.4921 21.0325 22.0808 21.039 21.8607C21.0405 21.8093 21.057 21.8089 21.0948 21.7817Z" fill="white"/>
<path d="M18.2252 21.8095C18.3937 21.7945 18.8184 21.7708 18.9814 21.8026L19.0185 21.8341C18.9976 21.8881 18.9516 21.8806 18.9504 21.8917C18.9217 22.1648 18.5654 21.901 18.3798 22.0539L18.3607 22.094L18.3774 22.1233C18.4764 22.1477 18.6381 22.1347 18.7456 22.1393C18.6576 22.1544 18.6266 22.158 18.5377 22.1568C18.4797 22.1572 18.4366 22.1585 18.3783 22.1636C18.3403 22.2004 18.3307 22.2128 18.3173 22.2641C18.1901 22.1885 18.3059 22.1995 18.1513 22.1048C18.177 22.0072 18.2045 21.9082 18.2252 21.8095Z" fill="white"/>
<path d="M20.1023 22.0203C20.1558 21.9385 20.2061 21.798 20.3019 21.7924C20.4701 21.7825 20.8356 21.6971 20.8908 21.9102C20.8707 21.9834 20.8864 21.9708 20.8345 22.0037C20.6728 22.0224 20.4351 21.9651 20.3204 22.0394C20.3043 22.0723 20.2957 22.0827 20.2984 22.1196C20.264 22.076 20.1701 22.0523 20.1023 22.0203Z" fill="white"/>
<path d="M17.9605 22.6834L17.9618 22.6508C17.9674 22.5163 17.9529 22.4826 18.0456 22.3975C18.077 22.4172 18.1469 22.4658 18.1789 22.4712C18.3058 22.4859 18.6932 22.4528 18.7657 22.5282C18.7359 22.7399 18.1404 22.6832 17.9605 22.6834Z" fill="white"/>
<path d="M19.9512 22.4326C20.019 22.4776 20.0555 22.5261 20.1359 22.4856C20.22 22.487 20.6003 22.4826 20.6462 22.5154L20.6518 22.5671C20.5653 22.7042 20.0802 22.6736 19.9294 22.6689L19.912 22.6437C19.9036 22.5704 19.9298 22.5036 19.9512 22.4326Z" fill="white"/>
<path d="M20.1023 22.0203C20.1701 22.0523 20.264 22.076 20.2984 22.1196L20.3018 22.1696C20.2799 22.2212 20.276 22.2293 20.2739 22.285C20.2336 22.3515 20.1862 22.4266 20.1359 22.4856C20.0555 22.5261 20.019 22.4776 19.9512 22.4326C19.9978 22.2792 20.0339 22.1649 20.1023 22.0203Z" fill="white"/>
<path d="M18.1513 22.1048C18.3059 22.1995 18.1901 22.1885 18.3173 22.2641C18.3307 22.2128 18.3403 22.2004 18.3783 22.1636C18.4366 22.1585 18.4797 22.1572 18.5377 22.1568C18.4668 22.1879 18.4685 22.1739 18.4348 22.2298C18.4439 22.2698 18.445 22.2769 18.4632 22.3133C18.369 22.3157 18.2327 22.3958 18.1789 22.4712C18.1469 22.4658 18.077 22.4172 18.0456 22.3975C18.0821 22.366 18.134 22.1628 18.1513 22.1048Z" fill="white"/>
<path d="M18.7456 22.1393L18.7941 22.1304L18.8177 22.1525C18.8168 22.2162 18.8104 22.2689 18.8081 22.3301C18.7205 22.329 18.5414 22.3323 18.4632 22.3133C18.445 22.2769 18.4439 22.2698 18.4348 22.2298C18.4685 22.1739 18.4668 22.1879 18.5377 22.1568C18.6266 22.158 18.6576 22.1544 18.7456 22.1393Z" fill="white"/>
<path d="M20.3018 22.1696C20.4059 22.1492 20.6113 22.103 20.6898 22.1925C20.6737 22.3253 20.4249 22.3081 20.3259 22.295C20.3084 22.2925 20.2911 22.2892 20.2739 22.285C20.276 22.2293 20.2799 22.2212 20.3018 22.1696Z" fill="white"/>
<path d="M22.5058 21.7872C22.6206 21.7827 22.708 21.7573 22.7758 21.8658C22.7658 22.0092 22.6381 22.0048 22.5316 21.9985C22.5301 21.9328 22.5351 21.8427 22.5058 21.7872Z" fill="white"/>
<path d="M22.1317 21.8008C22.2597 21.7896 22.3776 21.7888 22.5058 21.7872C22.5351 21.8427 22.5301 21.9328 22.5316 21.9985L22.3822 21.998C22.3784 21.9285 22.3921 21.9205 22.3776 21.8382C22.3228 21.8035 22.3137 21.8174 22.2349 21.8208L22.1317 21.8008Z" fill="white"/>
<path d="M18.9196 9.29418C19.0816 9.2774 19.3911 9.28598 19.5657 9.28615L22.0141 9.28635C22.314 9.28662 22.7403 9.28178 23.0319 9.32322C23.4229 9.37666 23.8019 9.4967 24.1523 9.67814C25.0814 10.1592 25.6556 11.106 25.8637 12.1031C25.9049 12.3014 25.9392 12.5187 26 12.7105V13.6468C25.9346 13.7913 25.8592 14.2823 25.8121 14.4719C25.5984 15.3337 25.1517 16.1201 24.5211 16.7451C23.618 17.6546 22.6147 18.1148 21.3855 18.3998C20.6689 18.5659 20.2705 18.6422 19.5146 18.6459C19.5797 18.2812 19.6965 18.0402 19.8288 17.7055L20.1732 16.8182L21.4961 13.3218C21.5446 13.1935 21.6108 13.0559 21.6531 12.9279C21.7828 12.5356 21.9825 12.1593 22.0979 11.765C22.0017 11.7726 21.8918 11.7711 21.7949 11.7698C20.527 11.7526 19.2509 11.7896 17.9839 11.7561C18.1086 11.4694 18.1928 11.1349 18.3098 10.8497C18.522 10.3322 18.7178 9.81547 18.9196 9.29418Z" fill="white"/>
</svg>
